<?xml version="1.0" encoding="utf-8"?>
<svg viewBox="160.788 251.692 695.247 257.58" width="695.247px" height="257.58px"
  xmlns="http://www.w3.org/2000/svg">
  <g id="logo-group" fill="#FFFFFF" transform="matrix(1, 0, 0, 1, 0, 7.105427357601002e-15)">
    <image id="container" x="51.200000000000045" y="-76.79999999999995" width="921.5999999999999"
      height="921.5999999999999" style="display: none;" transform="translate(0 0)" fill="#FFFFFF" />
    <g id="logo-center" transform="translate(157.95141030000002 0)" fill="#FFFFFF">
      <image id="icon_container" x="0" y="0" style="display: none;" fill="#FFFFFF" />
      <g id="slogan"
        style="font-style:normal;font-weight:300;font-size:32px;line-height:1;font-family:Montserrat;font-variant-ligatures:none;text-align:center;text-anchor:middle"
        transform="translate(0 0)" fill="#FFFFFF">
        <path id="path725656"
          style="font-style:normal;font-weight:300;font-size:32px;line-height:1;font-family:Montserrat;font-variant-ligatures:none;text-align:center;text-anchor:middle"
          d="m 384.253,-16.832 q 2.336,0 4.16,1.088 1.856,1.056 2.88,3.008 1.024,1.92 1.024,4.384 0,2.432 -1.024,4.352 -1.024,1.92 -2.848,3.008 -1.824,1.056 -4.16,1.056 -2.304,0 -4.032,-1.024 -1.728,-1.056 -2.688,-2.912 V 0 h -2.144 v -23.744 h 2.144 v 10.848 q 0.928,-1.856 2.656,-2.88 1.76,-1.056 4.032,-1.056 z m -0.384,15.04 q 1.792,0 3.232,-0.832 1.44,-0.864 2.24,-2.368 0.8,-1.504 0.8,-3.424 0,-1.888 -0.8,-3.392 -0.8,-1.504 -2.24,-2.336 -1.44,-0.864 -3.232,-0.864 -1.824,0 -3.264,0.864 -1.408,0.832 -2.24,2.336 -0.8,1.504 -0.8,3.392 0,1.92 0.8,3.424 0.8,1.504 2.24,2.368 1.44,0.832 3.264,0.832 z"
          stroke-width="1" stroke-linejoin="miter" stroke-miterlimit="2" fill="#00A0D9"
          stroke="#00A0D9"
          transform="translate(-157.95141030000002 373.61264) translate(375.99231 52.13696) scale(0.91) translate(-375.421 23.744)" />
        <path id="path725658"
          style="font-style:normal;font-weight:300;font-size:32px;line-height:1;font-family:Montserrat;font-variant-ligatures:none;text-align:center;text-anchor:middle"
          d="m 396.886,-16.768 h 2.144 V 0 h -2.144 z m 1.088,-6.336 q 0.64,0 1.056,0.448 0.416,0.416 0.416,1.056 0,0.64 -0.448,1.088 -0.416,0.448 -1.024,0.448 -0.64,0 -1.088,-0.448 -0.416,-0.448 -0.416,-1.088 0,-0.64 0.416,-1.056 0.448,-0.448 1.088,-0.448 z"
          stroke-width="1" stroke-linejoin="miter" stroke-miterlimit="2" fill="#00A0D9"
          stroke="#00A0D9"
          transform="translate(-157.95141030000002 373.61264) translate(396.9669 52.719359999999995) scale(0.91) translate(-396.47 23.104)" />
        <path id="path725660"
          style="font-style:normal;font-weight:300;font-size:32px;line-height:1;font-family:Montserrat;font-variant-ligatures:none;text-align:center;text-anchor:middle"
          d="m 413.709,-1.152 q -1.728,1.184 -3.712,1.248 -1.92,0 -3.04,-1.184 -1.12,-1.184 -1.12,-3.552 v -9.984 h -2.4 l -0.032,-1.664 h 2.432 v -4.32 h 2.144 v 4.32 l 5.44,-0.032 v 1.696 h -5.44 v 9.632 q 0,3.104 2.304,3.104 1.28,0 2.784,-0.896 z"
          stroke-width="1" stroke-linejoin="miter" stroke-miterlimit="2" fill="#00A0D9"
          stroke="#00A0D9"
          transform="translate(-157.95141030000002 373.61264) translate(405.09774999999996 54.990719999999996) scale(0.91) translate(-403.405 20.608)" />
        <path id="path725662"
          style="font-style:normal;font-weight:300;font-size:32px;line-height:1;font-family:Montserrat;font-variant-ligatures:none;text-align:center;text-anchor:middle"
          d="M 431.8195,-16.768 V -1.76 q 0,2.432 -1.024,4.256 -1.024,1.824 -2.944,2.784 -1.888,0.992 -4.384,0.992 -3.712,0 -6.88,-2.56 l 1.024,-1.536 q 1.28,1.12 2.688,1.696 1.408,0.576 3.072,0.576 2.88,0 4.576,-1.696 1.728,-1.664 1.728,-4.48 v -2.72 q -0.896,1.76 -2.56,2.752 -1.664,0.992 -3.84,0.992 -2.24,0 -4,-1.024 -1.728,-1.056 -2.72,-2.88 -0.96,-1.856 -0.96,-4.192 0,-2.336 0.96,-4.16 0.992,-1.824 2.752,-2.848 1.76,-1.024 4,-1.024 2.176,0 3.808,0.992 1.632,0.96 2.56,2.752 v -3.68 z m -8.16,14.336 q 1.728,0 3.104,-0.8 1.376,-0.832 2.144,-2.272 0.768,-1.44 0.768,-3.232 0,-1.824 -0.768,-3.264 -0.768,-1.44 -2.144,-2.24 -1.376,-0.832 -3.104,-0.832 -1.728,0 -3.104,0.832 -1.376,0.8 -2.176,2.24 -0.768,1.44 -0.768,3.264 0,1.824 0.768,3.264 0.8,1.408 2.144,2.24 1.376,0.8 3.136,0.8 z"
          stroke-width="1" stroke-linejoin="miter" stroke-miterlimit="2" fill="#00A0D9"
          stroke="#00A0D9"
          transform="translate(-157.95141030000002 373.61264) translate(418.01110500000004 58.42688) scale(0.91) translate(-415.5955 16.832)" />
        <path id="path725664"
          style="font-style:normal;font-weight:300;font-size:32px;line-height:1;font-family:Montserrat;font-variant-ligatures:none;text-align:center;text-anchor:middle"
          d="m 444.164,-16.832 q 3.904,0 5.952,2.496 2.048,2.464 1.888,6.656 H 438.02 q 0.224,2.688 1.984,4.352 1.76,1.632 4.352,1.632 1.6,0 2.976,-0.576 1.376,-0.576 2.368,-1.632 l 1.216,1.216 q -1.216,1.312 -2.944,2.048 -1.696,0.704 -3.744,0.704 -2.432,0 -4.32,-1.056 -1.888,-1.088 -2.976,-3.008 -1.056,-1.92 -1.056,-4.384 0,-2.432 1.056,-4.352 1.088,-1.952 2.976,-3.008 1.888,-1.088 4.256,-1.088 z m 5.92,7.488 q -0.16,-2.624 -1.76,-4.16 -1.568,-1.568 -4.128,-1.568 -2.528,0 -4.224,1.568 -1.696,1.568 -1.952,4.16 z"
          stroke-width="1" stroke-linejoin="miter" stroke-miterlimit="2" fill="#00A0D9"
          stroke="#00A0D9"
          transform="translate(-157.95141030000002 373.61264) translate(438.28636000000006 58.42688) scale(0.91) translate(-435.876 16.832)" />
        <path id="path725666"
          style="font-style:normal;font-weight:300;font-size:32px;line-height:1;font-family:Montserrat;font-variant-ligatures:none;text-align:center;text-anchor:middle"
          d="m 464.959,-1.152 q -1.728,1.184 -3.712,1.248 -1.92,0 -3.04,-1.184 -1.12,-1.184 -1.12,-3.552 v -9.984 h -2.4 l -0.032,-1.664 h 2.432 v -4.32 h 2.144 v 4.32 l 5.44,-0.032 v 1.696 h -5.44 v 9.632 q 0,3.104 2.304,3.104 1.28,0 2.784,-0.896 z"
          stroke-width="1" stroke-linejoin="miter" stroke-miterlimit="2" fill="#00A0D9"
          stroke="#00A0D9"
          transform="translate(-157.95141030000002 373.61264) translate(457.1952500000001 54.990719999999996) scale(0.91) translate(-454.655 20.608)" />
        <path id="path725668"
          style="font-style:normal;font-weight:300;font-size:32px;line-height:1;font-family:Montserrat;font-variant-ligatures:none;text-align:center;text-anchor:middle"
          d="m 467.7675,-10.464 h 7.424 v 1.568 h -7.424 z" stroke-width="1" stroke-linejoin="miter"
          stroke-miterlimit="2" fill="#00A0D9" stroke="#00A0D9"
          transform="translate(-157.95141030000002 373.61264) translate(470.94762500000013 64.22176) scale(0.91) translate(-467.7675 10.464)" />
        <path id="path725670"
          style="font-style:normal;font-weight:300;font-size:32px;line-height:1;font-family:Montserrat;font-variant-ligatures:none;text-align:center;text-anchor:middle"
          d="m 490.9765,0 -0.032,-2.816 q -0.992,1.472 -2.592,2.208 -1.6,0.704 -3.68,0.704 -1.696,0 -3.008,-0.64 -1.28,-0.672 -1.984,-1.824 -0.704,-1.152 -0.704,-2.592 0,-2.176 1.664,-3.424 1.696,-1.248 4.64,-1.248 h 5.632 v -1.28 q 0,-1.984 -1.184,-3.072 -1.184,-1.088 -3.456,-1.088 -2.688,0 -5.408,2.016 l -0.96,-1.472 q 1.696,-1.184 3.232,-1.728 1.536,-0.576 3.52,-0.576 3.04,0 4.704,1.536 1.664,1.504 1.696,4.192 L 493.0885,0 Z m -5.92,-1.696 q 2.24,0 3.776,-1.024 1.568,-1.056 2.112,-2.944 v -2.304 h -5.408 q -2.208,0 -3.36,0.736 -1.152,0.736 -1.152,2.208 0,1.504 1.088,2.432 1.12,0.896 2.944,0.896 z"
          stroke-width="1" stroke-linejoin="miter" stroke-miterlimit="2" fill="#00A0D9"
          stroke="#00A0D9"
          transform="translate(-157.95141030000002 373.61264) translate(482.96781500000014 58.42688) scale(0.91) translate(-478.9765 16.832)" />
        <path id="path725672"
          style="font-style:normal;font-weight:300;font-size:32px;line-height:1;font-family:Montserrat;font-variant-ligatures:none;text-align:center;text-anchor:middle"
          d="m 507.8155,-16.832 q 2.336,0 4.16,1.088 1.856,1.056 2.88,3.008 1.024,1.92 1.024,4.384 0,2.432 -1.024,4.352 -1.024,1.92 -2.848,3.008 -1.824,1.056 -4.16,1.056 -2.304,0 -4.032,-1.024 -1.728,-1.056 -2.688,-2.912 v 10.08 h -2.144 v -22.976 h 2.144 v 3.872 q 0.928,-1.856 2.656,-2.88 1.76,-1.056 4.032,-1.056 z m -0.384,15.04 q 1.792,0 3.232,-0.832 1.44,-0.864 2.24,-2.368 0.8,-1.504 0.8,-3.424 0,-1.888 -0.8,-3.392 -0.8,-1.504 -2.24,-2.336 -1.44,-0.864 -3.232,-0.864 -1.824,0 -3.264,0.864 -1.408,0.832 -2.24,2.336 -0.8,1.504 -0.8,3.392 0,1.92 0.8,3.424 0.8,1.504 2.24,2.368 1.44,0.832 3.264,0.832 z"
          stroke-width="1" stroke-linejoin="miter" stroke-miterlimit="2" fill="#00A0D9"
          stroke="#00A0D9"
          transform="translate(-157.95141030000002 373.61264) translate(502.99418500000013 58.42688) scale(0.91) translate(-498.9835 16.832)" />
        <path id="path725674"
          style="font-style:normal;font-weight:300;font-size:32px;line-height:1;font-family:Montserrat;font-variant-ligatures:none;text-align:center;text-anchor:middle"
          d="m 520.4485,-16.768 h 2.144 V 0 h -2.144 z m 1.088,-6.336 q 0.64,0 1.056,0.448 0.416,0.416 0.416,1.056 0,0.64 -0.448,1.088 -0.416,0.448 -1.024,0.448 -0.64,0 -1.088,-0.448 -0.416,-0.448 -0.416,-1.088 0,-0.64 0.416,-1.056 0.448,-0.448 1.088,-0.448 z"
          stroke-width="1" stroke-linejoin="miter" stroke-miterlimit="2" fill="#00A0D9"
          stroke="#00A0D9"
          transform="translate(-157.95141030000002 373.61264) translate(523.9687750000002 52.719359999999995) scale(0.91) translate(-520.0325 23.104)" />
        <path id="path725676"
          style="font-style:normal;font-weight:300;font-size:32px;line-height:1;font-family:Montserrat;font-variant-ligatures:none;text-align:center;text-anchor:middle"
          d="m 557.636,-3.936 q 0,1.088 0.544,1.728 0.576,0.608 1.408,0.608 0.992,0 1.792,-0.864 0.832,-0.864 1.28,-2.4 0.48,-1.568 0.48,-3.584 0,-3.616 -1.6,-6.496 -1.6,-2.88 -4.48,-4.512 -2.88,-1.664 -6.56,-1.664 -3.616,0 -6.592,1.664 -2.976,1.632 -4.672,4.544 -1.696,2.88 -1.696,6.432 0,3.456 1.632,6.208 1.632,2.752 4.48,4.32 2.88,1.568 6.432,1.568 1.44,0 3.104,-0.448 1.664,-0.448 2.848,-1.216 l 0.8,1.472 q -1.312,0.832 -3.232,1.344 -1.888,0.512 -3.52,0.512 -4.032,0 -7.296,-1.792 -3.232,-1.76 -5.088,-4.896 -1.856,-3.168 -1.856,-7.072 0,-4.032 1.92,-7.296 1.92,-3.264 5.248,-5.12 3.36,-1.856 7.488,-1.856 4.096,0 7.36,1.856 3.264,1.824 5.12,5.088 1.856,3.232 1.856,7.296 0,2.528 -0.704,4.416 -0.672,1.888 -1.92,2.944 -1.216,1.024 -2.848,1.024 -1.376,0 -2.304,-0.8 -0.896,-0.832 -1.024,-2.272 l -0.032,-1.344 q -0.96,1.856 -2.656,2.88 -1.696,0.992 -3.84,0.992 -2.144,0 -3.904,-0.992 -1.76,-1.024 -2.816,-2.816 -1.024,-1.824 -1.024,-4.096 0,-2.24 0.96,-4.064 0.96,-1.824 2.688,-2.848 1.728,-1.056 3.936,-1.056 2.208,0 3.904,1.088 1.696,1.056 2.336,2.528 v -3.424 h 2.048 z m -7.968,-10.656 q -1.632,0 -2.944,0.8 -1.28,0.768 -2.016,2.144 -0.736,1.344 -0.736,3.008 0,1.696 0.736,3.072 0.736,1.376 2.016,2.176 1.312,0.8 2.976,0.8 1.696,0 3.008,-0.768 1.312,-0.8 2.048,-2.176 0.736,-1.376 0.736,-3.104 0,-1.696 -0.736,-3.04 -0.736,-1.344 -2.08,-2.112 -1.312,-0.8 -3.008,-0.8 z"
          stroke-width="1" stroke-linejoin="miter" stroke-miterlimit="2" fill="#00A0D9"
          stroke="#00A0D9"
          transform="translate(-157.95141030000002 373.61264) translate(540.1772400000002 53.039680000000004) scale(0.91) translate(-535.844 22.752)" />
        <path id="path725678"
          style="font-style:normal;font-weight:300;font-size:32px;line-height:1;font-family:Montserrat;font-variant-ligatures:none;text-align:center;text-anchor:middle"
          d="m 594.744,-22.368 h 2.176 V 0 h -2.336 L 580.728,-18.944 V 0 h -2.208 v -22.368 h 2.336 l 13.888,18.944 z"
          stroke-width="1" stroke-linejoin="miter" stroke-miterlimit="2" fill="#00A0D9"
          stroke="#00A0D9"
          transform="translate(-157.95141030000002 373.61264) translate(580.8324000000001 53.389120000000005) scale(0.91) translate(-578.52 22.368)" />
        <path id="path725680"
          style="font-style:normal;font-weight:300;font-size:32px;line-height:1;font-family:Montserrat;font-variant-ligatures:none;text-align:center;text-anchor:middle"
          d="m 612.276,-22.368 q 4.16,0 6.432,1.952 2.272,1.92 2.272,5.472 0,3.68 -2.272,5.696 -2.272,2.016 -6.432,2.016 h -6.048 V 0 h -2.208 v -22.368 z m -0.096,13.152 q 3.2,0 4.928,-1.44 1.76,-1.472 1.76,-4.224 0,-2.688 -1.728,-4.096 -1.728,-1.408 -4.96,-1.408 h -5.952 v 11.168 z"
          stroke-width="1" stroke-linejoin="miter" stroke-miterlimit="2" fill="#00A0D9"
          stroke="#00A0D9"
          transform="translate(-157.95141030000002 373.61264) translate(605.8574000000002 53.389120000000005) scale(0.91) translate(-604.02 22.368)" />
        <path id="path725682"
          style="font-style:normal;font-weight:300;font-size:32px;line-height:1;font-family:Montserrat;font-variant-ligatures:none;text-align:center;text-anchor:middle"
          d="m 625.395,-22.4 h 2.752 l 8.768,16.8 8.672,-16.8 h 2.752 V 0 h -2.048 l -0.032,-19.328 -8.768,16.928 h -1.216 l -8.8,-16.928 V 0 h -2.08 z"
          stroke-width="1" stroke-linejoin="miter" stroke-miterlimit="2" fill="#00A0D9"
          stroke="#00A0D9"
          transform="translate(-157.95141030000002 373.61264) translate(627.1286500000001 53.36) scale(0.91) translate(-625.395 22.4)" />
      </g>
      <g id="title"
        style="font-style:normal;font-weight:500;font-size:72px;line-height:1;font-family:'Raleway Medium Alt1';font-variant-ligatures:none;text-align:center;text-anchor:middle"
        transform="translate(0 0)" fill="#FFFFFF">
        <path id="path725685"
          style="font-style:normal;font-weight:500;font-size:72px;line-height:1;font-family:'Raleway Medium Alt1';font-variant-ligatures:none;text-align:center;text-anchor:middle"
          d="m 293.54187,0 h 6.48001 v -28.728 l -6.48001,-8.424 z m 36.72,-51.048 v 39.744 L 298.58188,-51.12 h -5.04001 v 3.888 l 6.48001,8.208 31.248,39.024 h 5.47199 v -51.048 z"
          stroke-width="0px" stroke-linejoin="miter" stroke-miterlimit="2" fill="#000000"
          stroke="#000000"
          transform="translate(0 284.90864) translate(50 32.01440000000001) scale(1.38) translate(-293.54187 51.12)" />
        <path id="path725687"
          style="font-style:normal;font-weight:500;font-size:72px;line-height:1;font-family:'Raleway Medium Alt1';font-variant-ligatures:none;text-align:center;text-anchor:middle"
          d="m 363.653,0.72 c 2.808,0 5.4,-0.504 7.704,-1.584 2.304,-1.008 4.32,-2.448 6.048,-4.248 1.656,-1.728 2.952,-3.816 3.888,-6.192 0.864,-2.304 1.368,-4.824 1.368,-7.416 0,-2.592 -0.504,-5.112 -1.44,-7.488 -0.936,-2.304 -2.232,-4.392 -3.888,-6.192 -1.656,-1.728 -3.672,-3.168 -5.976,-4.248 -2.376,-1.008 -4.968,-1.584 -7.704,-1.584 -2.808,0 -5.4,0.576 -7.704,1.584 -2.304,1.08 -4.32,2.52 -5.976,4.248 -1.656,1.8 -2.952,3.888 -3.888,6.192 -0.936,2.376 -1.368,4.896 -1.368,7.488 0,2.592 0.432,5.112 1.368,7.416 0.864,2.376 2.16,4.464 3.816,6.192 1.656,1.8 3.672,3.24 5.976,4.248 2.304,1.08 4.896,1.584 7.776,1.584 z m -12.456,-19.368 c 0,-1.944 0.288,-3.744 0.936,-5.472 0.648,-1.728 1.512,-3.168 2.664,-4.464 1.152,-1.296 2.448,-2.304 3.96,-3.024 1.512,-0.72 3.168,-1.152 4.896,-1.152 1.728,0 3.312,0.36 4.824,1.08 1.512,0.72 2.88,1.728 4.032,3.024 1.152,1.296 2.016,2.736 2.664,4.464 0.648,1.728 1.008,3.528 1.008,5.4 0,2.016 -0.36,3.816 -1.008,5.544 -0.648,1.728 -1.512,3.168 -2.664,4.464 -1.152,1.296 -2.52,2.232 -4.032,2.952 -1.512,0.72 -3.096,1.08 -4.824,1.08 -1.728,0 -3.384,-0.36 -4.896,-1.08 -1.512,-0.72 -2.808,-1.656 -3.96,-2.952 -1.152,-1.224 -2.016,-2.664 -2.664,-4.392 -0.648,-1.656 -0.936,-3.456 -0.936,-5.472 z"
          stroke-width="0px" stroke-linejoin="miter" stroke-miterlimit="2" fill="#000000"
          stroke="#000000"
          transform="translate(0 284.90864) translate(120.62167939999998 49.79984000000001) scale(1.38) translate(-344.717 38.232)" />
        <path id="path725689"
          style="font-style:normal;font-weight:500;font-size:72px;line-height:1;font-family:'Raleway Medium Alt1';font-variant-ligatures:none;text-align:center;text-anchor:middle"
          d="m 405.88887,0.72 c 2.736,0 5.32801,-0.648 7.776,-2.016 2.448,-1.368 4.464,-3.312 5.976,-5.76 v 3.168 c 0,1.152 0.432,2.088 1.368,2.952 0.93601,0.864 2.016,1.224 3.312,1.224 0.36001,0 0.72001,0 1.152,-0.072 0.432,0 0.93601,-0.072 1.656,-0.216 v -5.472 c -1.368,0 -2.01599,-0.792 -2.01599,-2.304 V -52.56 h -6.336 v 22.464 c -1.44,-2.232 -3.31201,-4.176 -5.688,-5.76 -2.37601,-1.584 -5.04001,-2.376 -8.06401,-2.376 -2.51999,0 -4.824,0.576 -6.912,1.584 -2.088,1.008 -3.888,2.448 -5.4,4.176 -1.512,1.8 -2.664,3.888 -3.528,6.264 -0.864,2.376 -1.224,4.896 -1.224,7.488 0,2.592 0.432,5.112 1.296,7.416 0.864,2.376 2.16,4.464 3.744,6.192 1.584,1.8 3.45601,3.24 5.688,4.248 2.16001,1.08 4.608,1.584 7.2,1.584 z m 1.512,-5.472 c -1.87199,0 -3.52799,-0.36 -5.11199,-1.08 -1.584,-0.72 -2.88,-1.728 -4.03201,-3.024 -1.152,-1.224 -2.08799,-2.664 -2.736,-4.392 -0.71999,-1.728 -1.008,-3.528 -1.008,-5.4 0,-1.728 0.28801,-3.456 0.864,-5.184 0.576,-1.728 1.368,-3.24 2.44801,-4.536 1.07999,-1.296 2.37599,-2.376 3.88799,-3.168 1.512,-0.792 3.24,-1.224 5.11201,-1.224 1.15199,0 2.37599,0.288 3.59999,0.72 1.224,0.432 2.37601,1.08 3.456,1.872 1.08,0.792 2.08801,1.728 2.952,2.808 0.864,1.08 1.512,2.232 1.94401,3.384 v 10.8 c -0.28801,1.152 -0.79201,2.304 -1.584,3.312 -0.79201,1.008 -1.72801,1.944 -2.808,2.664 -1.08001,0.792 -2.23201,1.368 -3.45601,1.8 -1.22399,0.432 -2.376,0.648 -3.528,0.648 z"
          stroke-width="0px" stroke-linejoin="miter" stroke-miterlimit="2" fill="#000000"
          stroke="#000000"
          transform="translate(0 284.90864) translate(180.29821999999996 30.027200000000008) scale(1.38) translate(-387.96087 52.56)" />
        <path id="path725691"
          style="font-style:normal;font-weight:500;font-size:72px;line-height:1;font-family:'Raleway Medium Alt1';font-variant-ligatures:none;text-align:center;text-anchor:middle"
          d="m 452.32213,0.72 c 1.87199,0 3.67199,-0.216 5.39999,-0.72 1.72801,-0.432 3.24001,-1.08 4.68,-1.944 1.44,-0.864 2.664,-1.872 3.744,-3.024 1.08001,-1.152 1.944,-2.376 2.59201,-3.816 l -5.47201,-1.512 c -0.432,1.008 -1.008,1.872 -1.728,2.592 -0.72,0.792 -1.584,1.44 -2.52,1.944 -1.00799,0.576 -2.016,1.008 -3.096,1.296 -1.152,0.288 -2.23199,0.432 -3.384,0.432 -1.656,0 -3.23999,-0.288 -4.68,-0.936 -1.44,-0.576 -2.736,-1.44 -3.888,-2.592 -1.152,-1.08 -2.088,-2.376 -2.808,-3.96 -0.72,-1.512 -1.15199,-3.24 -1.296,-5.112 h 31.176 c 0,-0.216 0.072,-0.576 0.072,-1.008 0,-0.432 0.072,-0.864 0.072,-1.44 0,-2.448 -0.504,-4.896 -1.368,-7.2 -0.864,-2.304 -2.16,-4.392 -3.744,-6.12 -1.65599,-1.728 -3.672,-3.168 -5.976,-4.248 -2.304,-1.008 -4.89599,-1.584 -7.704,-1.584 -2.88,0 -5.472,0.576 -7.77599,1.584 -2.37601,1.008 -4.392,2.448 -6.12,4.176 -1.72801,1.8 -3.024,3.888 -3.96001,6.192 -0.936,2.376 -1.368,4.896 -1.368,7.488 0,2.664 0.432,5.184 1.368,7.56 0.93601,2.376 2.232,4.464 3.96001,6.192 1.656,1.8 3.67199,3.24 6.048,4.248 2.30399,1.008 4.89599,1.512 7.776,1.512 z m 12.88799,-22.032 h -25.488 c 0.144,-1.728 0.50401,-3.384 1.224,-4.896 0.72001,-1.44 1.584,-2.736 2.736,-3.816 1.152,-1.08 2.44801,-1.944 3.96001,-2.52 1.44,-0.576 3.024,-0.936 4.75199,-0.936 1.656,0 3.24,0.36 4.752,0.936 1.44,0.576 2.736,1.44 3.88801,2.448 1.15199,1.08 2.08799,2.376 2.80799,3.888 0.72,1.512 1.224,3.168 1.368,4.896 z"
          stroke-width="0px" stroke-linejoin="miter" stroke-miterlimit="2" fill="#000000"
          stroke="#000000"
          transform="translate(0 284.90864) translate(242.68698499999994 49.79984000000001) scale(1.38) translate(-433.17012 38.232)" />
        <path id="path725693"
          style="font-style:normal;font-weight:500;font-size:72px;line-height:1;font-family:'Raleway Medium Alt1';font-variant-ligatures:none;text-align:center;text-anchor:middle"
          d="m 477.7955,0 h 5.328 v -8.064 h -5.328 z" stroke-width="0px" stroke-linejoin="miter"
          stroke-miterlimit="2" fill="#000000" stroke="#000000"
          transform="translate(0 284.90864) translate(304.27000939999994 91.43168) scale(1.38) translate(-477.7955 8.064)" />
        <path id="path725695"
          style="font-style:normal;font-weight:500;font-size:72px;line-height:1;font-family:'Raleway Medium Alt1';font-variant-ligatures:none;text-align:center;text-anchor:middle"
          d="m 487.95987,13.392 c 1.512,0 2.952,-0.288 4.392,-0.864 1.368,-0.576 2.592,-1.44 3.672,-2.52 1.08001,-1.08 1.944,-2.376 2.59201,-3.888 0.64799,-1.44 1.00799,-3.096 1.00799,-4.896 v -38.808 h -6.336 v 39.24 c 0,0.864 -0.216,1.728 -0.50399,2.448 -0.36001,0.792 -0.79201,1.44 -1.368,1.944 -0.57601,0.576 -1.22401,1.008 -1.94401,1.296 -0.72,0.288 -1.512,0.432 -2.232,0.432 -0.864,0 -1.8,-0.072 -2.664,-0.36 -0.86399,-0.216 -1.656,-0.648 -2.30399,-1.296 l -2.952,4.248 c 1.15199,1.08 2.44799,1.872 3.88799,2.304 1.44,0.504 3.024,0.72 4.752,0.72 z m 5.328,-58.032 h 6.336 v -7.92 h -6.336 z"
          stroke-width="0px" stroke-linejoin="miter" stroke-miterlimit="2" fill="#000000"
          stroke="#000000"
          transform="translate(0 284.90864) translate(306.3736538 30.027200000000008) scale(1.38) translate(-479.31988 52.56)" />
        <path id="path725697"
          style="font-style:normal;font-weight:500;font-size:72px;line-height:1;font-family:'Raleway Medium Alt1';font-variant-ligatures:none;text-align:center;text-anchor:middle"
          d="m 522.9755,0.72 c 4.536,0 8.136,-1.008 10.872,-3.096 2.664,-2.016 4.032,-4.824 4.032,-8.352 0,-1.584 -0.36,-2.88 -0.936,-4.032 -0.576,-1.08 -1.512,-2.016 -2.736,-2.88 -1.224,-0.792 -2.736,-1.512 -4.608,-2.088 -1.872,-0.576 -4.032,-1.224 -6.48,-1.8 -1.584,-0.36 -2.952,-0.72 -4.104,-1.08 -1.152,-0.288 -2.016,-0.72 -2.736,-1.152 -0.72,-0.432 -1.296,-0.936 -1.584,-1.512 -0.288,-0.576 -0.432,-1.296 -0.432,-2.16 0,-2.16 0.792,-3.672 2.376,-4.68 1.584,-1.008 3.6,-1.512 5.904,-1.512 2.016,0 4.032,0.36 6.048,1.08 1.944,0.72 3.744,1.728 5.328,3.096 l 2.88,-3.816 c -1.728,-1.44 -3.744,-2.664 -6.192,-3.6 -2.448,-0.864 -5.112,-1.368 -7.92,-1.368 -2.016,0 -3.96,0.288 -5.688,0.792 -1.728,0.504 -3.24,1.224 -4.536,2.232 -1.296,1.008 -2.376,2.232 -3.096,3.672 -0.72,1.44 -1.08,3.096 -1.08,4.968 0,1.512 0.216,2.736 0.72,3.744 0.432,1.008 1.224,1.872 2.304,2.592 1.008,0.72 2.376,1.368 4.032,1.872 1.584,0.576 3.528,1.08 5.832,1.656 1.728,0.432 3.312,0.864 4.68,1.224 1.296,0.432 2.448,0.864 3.312,1.296 0.864,0.504 1.512,1.08 1.944,1.728 0.432,0.648 0.648,1.44 0.648,2.304 0,2.016 -0.864,3.528 -2.448,4.608 -1.584,1.08 -3.744,1.584 -6.48,1.584 -2.448,0 -4.824,-0.36 -6.984,-1.224 -2.232,-0.864 -4.464,-2.088 -6.624,-3.816 l -2.736,4.248 c 2.088,1.8 4.608,3.168 7.56,4.104 2.88,0.936 5.904,1.368 8.928,1.368 z"
          stroke-width="0px" stroke-linejoin="miter" stroke-miterlimit="2" fill="#000000"
          stroke="#000000"
          transform="translate(0 284.90864) translate(343.86496939999995 49.79984000000001) scale(1.38) translate(-506.4875 38.232)" />
        <path id="path725699"
          style="font-style:normal;font-weight:500;font-size:72px;line-height:1;font-family:'Raleway Medium Alt1';font-variant-ligatures:none;text-align:center;text-anchor:middle"
          d="m 594.69087,-40.392 3.024,-5.256 c -2.15999,-1.728 -4.67999,-3.168 -7.416,-4.248 -2.808,-1.008 -5.904,-1.584 -9.35999,-1.584 -2.66401,0 -5.11201,0.36 -7.34401,1.008 -2.30399,0.648 -4.248,1.584 -5.832,2.88 -1.656,1.296 -2.952,2.88 -3.816,4.752 -0.93599,1.872 -1.36799,4.032 -1.36799,6.48 0,2.016 0.288,3.744 1.00799,5.184 0.648,1.44 1.65601,2.664 2.952,3.672 1.296,1.008 2.952,1.872 4.96801,2.592 1.94399,0.72 4.24799,1.44 6.83999,2.016 2.30401,0.576 4.392,1.152 6.264,1.728 1.87201,0.576 3.384,1.152 4.68001,1.872 1.22399,0.72 2.15999,1.584 2.808,2.592 0.648,1.008 1.00799,2.16 1.00799,3.6 0,2.592 -1.00799,4.536 -3.02399,5.832 -2.01601,1.296 -4.89601,1.944 -8.49601,1.944 -2.016,0 -3.88799,-0.144 -5.688,-0.576 -1.79999,-0.432 -3.456,-0.936 -5.04,-1.584 -1.584,-0.648 -2.95199,-1.368 -4.176,-2.232 -1.22399,-0.792 -2.232,-1.584 -2.952,-2.448 l -3.096,5.472 c 2.88,2.376 6.048,4.176 9.576,5.4 3.528,1.224 7.27201,1.8 11.232,1.8 2.59201,0 5.04001,-0.216 7.344,-0.792 2.232,-0.576 4.17601,-1.44 5.832,-2.592 1.656,-1.152 2.952,-2.664 3.96001,-4.464 0.93599,-1.8 1.43999,-3.96 1.43999,-6.408 0,-2.304 -0.432,-4.248 -1.22399,-5.832 -0.792,-1.584 -1.94401,-2.88 -3.456,-4.032 -1.51201,-1.08 -3.312,-2.016 -5.472,-2.736 -2.16001,-0.72 -4.53601,-1.44 -7.12801,-2.016 -2.30399,-0.504 -4.32,-1.008 -5.976,-1.512 -1.72799,-0.432 -3.096,-1.008 -4.248,-1.656 -1.15199,-0.648 -1.944,-1.44 -2.448,-2.376 -0.576,-0.864 -0.792,-2.016 -0.792,-3.456 0,-2.592 0.864,-4.608 2.73601,-6.12 1.872,-1.44 4.75199,-2.232 8.784,-2.232 1.51199,0 2.952,0.216 4.39199,0.504 1.44001,0.288 2.736,0.72 3.96001,1.224 1.15199,0.504 2.23199,1.08 3.24,1.656 0.93599,0.648 1.72799,1.296 2.30399,1.944 z"
          stroke-width="0px" stroke-linejoin="miter" stroke-miterlimit="2" fill="#000000"
          stroke="#000000"
          transform="translate(0 284.90864) translate(418.5883399999999 31.517600000000016) scale(1.38) translate(-560.63487 51.48)" />
        <path id="path725701"
          style="font-style:normal;font-weight:500;font-size:72px;line-height:1;font-family:'Raleway Medium Alt1';font-variant-ligatures:none;text-align:center;text-anchor:middle"
          d="m 649.36587,-35.496 c -1.00799,-3.096 -2.592,-5.832 -4.60799,-8.136 -2.088,-2.232 -4.68001,-4.104 -7.77601,-5.472 -3.096,-1.296 -6.69599,-2.016 -10.728,-2.016 h -17.712 v 5.76 h 17.712 c 2.88,0 5.4,0.504 7.70401,1.512 2.232,1.008 4.10399,2.376 5.688,4.032 1.58399,1.728 2.736,3.816 3.52799,6.264 0.792,2.448 1.224,5.112 1.224,7.92 0,2.88 -0.432,5.472 -1.224,7.92 -0.79199,2.448 -1.944,4.536 -3.45599,6.264 -1.51201,1.8 -3.384,3.24 -5.68801,4.176 -2.304,1.008 -4.896,1.512 -7.776,1.512 h -11.23199 v -32.76 h -6.48001 V 0 h 17.712 c 3.74401,0 7.12801,-0.576 10.15201,-1.8 3.024,-1.224 5.688,-2.952 7.84799,-5.184 2.16,-2.232 3.81601,-4.896 4.968,-8.064 1.152,-3.168 1.72801,-6.696 1.72801,-10.584 0,-3.456 -0.57601,-6.768 -1.58401,-9.864 z"
          stroke-width="0px" stroke-linejoin="miter" stroke-miterlimit="2" fill="#000000"
          stroke="#000000"
          transform="translate(0 284.90864) translate(484.69999999999993 32.01440000000001) scale(1.38) translate(-608.54187 51.12)" />
        <path id="path725703"
          style="font-style:normal;font-weight:500;font-size:72px;line-height:1;font-family:'Raleway Medium Alt1';font-variant-ligatures:none;text-align:center;text-anchor:middle"
          d="m 666.63125,-51.048 h -6.48 v 26.784 l 6.48,-6.984 z m 12.816,22.464 20.52,-22.536 h -6.984 l -26.352,28.296 -6.48,6.912 V 0 h 6.48 v -15.624 l 8.856,-9.216 18.576,24.84 h 7.056 z"
          stroke-width="0px" stroke-linejoin="miter" stroke-miterlimit="2" fill="#000000"
          stroke="#000000"
          transform="translate(0 284.90864) translate(555.9209443999999 32.01440000000001) scale(1.38) translate(-660.15125 51.12)" />
        <path id="path725705"
          style="font-style:normal;font-weight:500;font-size:72px;line-height:1;font-family:'Raleway Medium Alt1';font-variant-ligatures:none;text-align:center;text-anchor:middle"
          d="m 719.288,0.72 c 4.536,0 8.136,-1.008 10.872,-3.096 2.664,-2.016 4.032,-4.824 4.032,-8.352 0,-1.584 -0.36,-2.88 -0.936,-4.032 -0.576,-1.08 -1.512,-2.016 -2.736,-2.88 -1.224,-0.792 -2.736,-1.512 -4.608,-2.088 -1.872,-0.576 -4.032,-1.224 -6.48,-1.8 -1.584,-0.36 -2.952,-0.72 -4.104,-1.08 -1.152,-0.288 -2.016,-0.72 -2.736,-1.152 -0.72,-0.432 -1.296,-0.936 -1.584,-1.512 -0.288,-0.576 -0.432,-1.296 -0.432,-2.16 0,-2.16 0.792,-3.672 2.376,-4.68 1.584,-1.008 3.6,-1.512 5.904,-1.512 2.016,0 4.032,0.36 6.048,1.08 1.944,0.72 3.744,1.728 5.328,3.096 l 2.88,-3.816 c -1.728,-1.44 -3.744,-2.664 -6.192,-3.6 -2.448,-0.864 -5.112,-1.368 -7.92,-1.368 -2.016,0 -3.96,0.288 -5.688,0.792 -1.728,0.504 -3.24,1.224 -4.536,2.232 -1.296,1.008 -2.376,2.232 -3.096,3.672 -0.72,1.44 -1.08,3.096 -1.08,4.968 0,1.512 0.216,2.736 0.72,3.744 0.432,1.008 1.224,1.872 2.304,2.592 1.008,0.72 2.376,1.368 4.032,1.872 1.584,0.576 3.528,1.08 5.832,1.656 1.728,0.432 3.312,0.864 4.68,1.224 1.296,0.432 2.448,0.864 3.312,1.296 0.864,0.504 1.512,1.08 1.944,1.728 0.432,0.648 0.648,1.44 0.648,2.304 0,2.016 -0.864,3.528 -2.448,4.608 -1.584,1.08 -3.744,1.584 -6.48,1.584 -2.448,0 -4.824,-0.36 -6.984,-1.224 -2.232,-0.864 -4.464,-2.088 -6.624,-3.816 l -2.736,4.248 c 2.088,1.8 4.608,3.168 7.56,4.104 2.88,0.936 5.904,1.368 8.928,1.368 z"
          stroke-width="0px" stroke-linejoin="miter" stroke-miterlimit="2" fill="#000000"
          stroke="#000000"
          transform="translate(0 284.90864) translate(614.7762194 49.79984000000001) scale(1.38) translate(-702.8 38.232)" />
      </g>
      <image id="icon" x="0" y="0" style="display: none;" fill="#FFFFFF" />
    </g>
  </g>
</svg>
